<svg xmlns="http://www.w3.org/2000/svg" viewBox="0 0 1600 1100"><defs><linearGradient id="sky" x1="0" y1="0" x2="0" y2="1"><stop stop-color="#08090d"/><stop offset=".55" stop-color="#351743"/><stop offset="1" stop-color="#ff5e2c"/></linearGradient><radialGradient id="sun"><stop stop-color="#fff"/><stop offset=".25" stop-color="#ffd95b"/><stop offset=".62" stop-color="#ff4a4a"/><stop offset="1" stop-color="#ff4a4a" stop-opacity="0"/></radialGradient><linearGradient id="grid" x1="0" y1="0" x2="0" y2="1"><stop stop-color="#56e6ff"/><stop offset="1" stop-color="#56e6ff" stop-opacity="0"/></linearGradient></defs><rect width="1600" height="1100" fill="url(#sky)"/><circle cx="800" cy="410" r="270" fill="url(#sun)"/><g stroke="url(#grid)" stroke-width="3" opacity=".82"><path d="M0 720h1600M0 782h1600M0 854h1600M0 938h1600M0 1034h1600"/><path d="M800 665 130 1100M800 665 300 1100M800 665 510 1100M800 665h0M800 665 800 1100M800 665 1090 1100M800 665 1300 1100M800 665 1470 1100"/></g><path d="M0 665h1600" stroke="#c8ff3d" stroke-width="8" opacity=".8"/><circle cx="800" cy="665" r="10" fill="#c8ff3d"/><circle cx="1320" cy="265" r="2" fill="#fff"/><circle cx="1190" cy="180" r="3" fill="#fff"/><circle cx="330" cy="255" r="2" fill="#fff"/></svg>
